<?xml version="1.0" encoding="UTF-8" standalone="no"?><!DOCTYPE svg PUBLIC "-//W3C//DTD SVG 1.1//EN" "http://www.w3.org/Graphics/SVG/1.1/DTD/svg11.dtd"><svg width="100%" height="100%" viewBox="0 0 62 62" version="1.1" xmlns="http://www.w3.org/2000/svg" xmlns:xlink="http://www.w3.org/1999/xlink" xml:space="preserve" style="fill-rule:evenodd;clip-rule:evenodd;stroke-linejoin:round;stroke-miterlimit:1.41421;"><path d="M13.409,43.975c0,9.46 7.697,17.157 17.157,17.157c9.46,0 17.157,-7.697 17.157,-17.157c0,-8.407 -6.08,-15.416 -14.072,-16.874l0,-9.163l1.814,1.136c1.444,0.904 3.347,0.466 4.251,-0.977c0.904,-1.444 0.466,-3.347 -0.977,-4.251l-2.36,-1.478l2.36,-1.478c1.444,-0.904 1.881,-2.807 0.977,-4.251c-0.904,-1.444 -2.807,-1.881 -4.251,-0.977l-1.814,1.136l0,-3.714c0,-1.703 -1.381,-3.084 -3.084,-3.084c-1.703,0 -3.084,1.381 -3.084,3.084l0,3.714l-1.814,-1.136c-1.444,-0.904 -3.347,-0.466 -4.251,0.977c-0.904,1.444 -0.466,3.347 0.977,4.251l2.36,1.478l-2.36,1.478c-1.444,0.904 -1.881,2.807 -0.977,4.251c0.904,1.444 2.807,1.881 4.251,0.977l1.814,-1.136l0,9.163c-7.994,1.458 -14.074,8.467 -14.074,16.874Zm28.145,0c0,6.059 -4.929,10.988 -10.988,10.988c-6.059,0 -10.988,-4.929 -10.988,-10.988c0,-6.059 4.929,-10.988 10.988,-10.988c6.059,0 10.988,4.929 10.988,10.988Z" style="fill-rule:nonzero;"/></svg>